# xmcd
#
# Track frame offsets: 
#        150
#        21763
#        39417
#        58797
#        76184
#        96408
#        115996
#        133066
#        153310
#        172212
#        187997
#
# Disc length: 2686 seconds
#
# Revision: 0
# Processed by: cddbd v1.5.2PL0 Copyright (c) Steve Scherf et al.
# Submitted via: ExactAudioCopy v1.3
#
DISCID=8f0a7c0b
DTITLE=Angel Forrest - Come Alive
DYEAR=2010
DGENRE=Blues Rock
TTITLE0=Tell Me Why
TTITLE1=Courage
TTITLE2=Come Alive
TTITLE3=She's The One
TTITLE4=Move On
TTITLE5=Breakdown
TTITLE6=One Way
TTITLE7=That's How I Know
TTITLE8=The Colour Blue
TTITLE9=I Believe
TTITLE10=Le Instrumental
EXTD=
EXTT0=
EXTT1=
EXTT2=
EXTT3=
EXTT4=
EXTT5=
EXTT6=
EXTT7=
EXTT8=
EXTT9=
EXTT10=
PLAYORDER=
